<svg xmlns="http://www.w3.org/2000/svg" xmlns:xlink="http://www.w3.org/1999/xlink" width="500" zoomAndPan="magnify" viewBox="0 0 375 374.999991" height="500" preserveAspectRatio="xMidYMid meet" version="1.0"><defs><g/><clipPath id="f3c0d12852"><path d="M 31.894531 161.175781 L 81.820312 161.175781 L 81.820312 216.195312 L 31.894531 216.195312 Z M 31.894531 161.175781 " clip-rule="nonzero"/></clipPath></defs><g clip-path="url(#f3c0d12852)"><path fill="#202020" d="M 32.523438 216.175781 L 33.125 216.175781 L 33.125 192.554688 L 42.714844 187.960938 L 42.714844 216.175781 L 49.410156 216.175781 L 49.410156 183.417969 L 43.917969 186.050781 L 43.917969 163.15625 L 59.003906 171.148438 L 59.003906 183.109375 L 53.507812 186.898438 L 53.507812 216.175781 L 60.203125 216.175781 L 60.203125 183.746094 L 69.796875 177.136719 L 69.796875 190.710938 L 64.304688 188.4375 L 64.304688 216.175781 L 70.996094 216.175781 L 70.996094 192.511719 L 80.589844 196.480469 L 80.589844 216.175781 L 81.789062 216.175781 L 81.789062 195.671875 L 70.996094 191.207031 L 70.996094 174.847656 L 60.203125 182.285156 L 60.203125 170.421875 L 42.714844 161.160156 L 42.714844 186.625 L 31.925781 191.792969 L 31.925781 216.175781 Z M 69.796875 192.015625 L 69.796875 214.96875 L 65.5 214.96875 L 65.5 190.238281 Z M 59.003906 184.574219 L 59.003906 214.96875 L 54.707031 214.96875 L 54.707031 187.535156 Z M 43.917969 187.386719 L 48.210938 185.332031 L 48.210938 214.96875 L 43.917969 214.96875 L 43.917969 187.386719 " fill-opacity="1" fill-rule="evenodd"/></g><g fill="#202020" fill-opacity="1"><g transform="translate(90.739135, 193.055696)"><g><path d="M 3.578125 0 L 3.578125 -26.0625 L 6.609375 -26.0625 L 6.609375 0 Z M 3.578125 0 "/></g></g></g><g fill="#202020" fill-opacity="1"><g transform="translate(108.46851, 193.055696)"><g><path d="M 15.109375 0 L 6.28125 -23.09375 L 6.125 -23.09375 C 6.289062 -21.269531 6.375 -19.097656 6.375 -16.578125 L 6.375 0 L 3.578125 0 L 3.578125 -26.0625 L 8.140625 -26.0625 L 16.390625 -4.5625 L 16.546875 -4.5625 L 24.859375 -26.0625 L 29.390625 -26.0625 L 29.390625 0 L 26.359375 0 L 26.359375 -16.78125 C 26.359375 -18.707031 26.441406 -20.800781 26.609375 -23.0625 L 26.46875 -23.0625 L 17.5625 0 Z M 15.109375 0 "/></g></g></g><g fill="#202020" fill-opacity="1"><g transform="translate(148.966239, 193.055696)"><g><path d="M 15.109375 0 L 6.28125 -23.09375 L 6.125 -23.09375 C 6.289062 -21.269531 6.375 -19.097656 6.375 -16.578125 L 6.375 0 L 3.578125 0 L 3.578125 -26.0625 L 8.140625 -26.0625 L 16.390625 -4.5625 L 16.546875 -4.5625 L 24.859375 -26.0625 L 29.390625 -26.0625 L 29.390625 0 L 26.359375 0 L 26.359375 -16.78125 C 26.359375 -18.707031 26.441406 -20.800781 26.609375 -23.0625 L 26.46875 -23.0625 L 17.5625 0 Z M 15.109375 0 "/></g></g></g><g fill="#202020" fill-opacity="1"><g transform="translate(189.463964, 193.055696)"><g><path d="M 26.203125 -13.0625 C 26.203125 -8.894531 25.144531 -5.613281 23.03125 -3.21875 C 20.925781 -0.832031 17.992188 0.359375 14.234375 0.359375 C 10.398438 0.359375 7.441406 -0.8125 5.359375 -3.15625 C 3.273438 -5.507812 2.234375 -8.820312 2.234375 -13.09375 C 2.234375 -17.34375 3.273438 -20.632812 5.359375 -22.96875 C 7.453125 -25.300781 10.425781 -26.46875 14.28125 -26.46875 C 18.019531 -26.46875 20.941406 -25.28125 23.046875 -22.90625 C 25.148438 -20.53125 26.203125 -17.25 26.203125 -13.0625 Z M 5.4375 -13.0625 C 5.4375 -9.53125 6.1875 -6.851562 7.6875 -5.03125 C 9.1875 -3.207031 11.367188 -2.296875 14.234375 -2.296875 C 17.128906 -2.296875 19.3125 -3.203125 20.78125 -5.015625 C 22.25 -6.835938 22.984375 -9.519531 22.984375 -13.0625 C 22.984375 -16.570312 22.25 -19.226562 20.78125 -21.03125 C 19.320312 -22.84375 17.15625 -23.75 14.28125 -23.75 C 11.382812 -23.75 9.1875 -22.835938 7.6875 -21.015625 C 6.1875 -19.191406 5.4375 -16.539062 5.4375 -13.0625 Z M 5.4375 -13.0625 "/></g></g></g><g fill="#202020" fill-opacity="1"><g transform="translate(225.436532, 193.055696)"><g><path d="M 18.28125 -6.9375 C 18.28125 -4.644531 17.445312 -2.851562 15.78125 -1.5625 C 14.125 -0.28125 11.867188 0.359375 9.015625 0.359375 C 5.929688 0.359375 3.554688 -0.0390625 1.890625 -0.84375 L 1.890625 -3.765625 C 2.960938 -3.304688 4.125 -2.945312 5.375 -2.6875 C 6.632812 -2.425781 7.882812 -2.296875 9.125 -2.296875 C 11.144531 -2.296875 12.664062 -2.675781 13.6875 -3.4375 C 14.707031 -4.207031 15.21875 -5.273438 15.21875 -6.640625 C 15.21875 -7.546875 15.035156 -8.285156 14.671875 -8.859375 C 14.316406 -9.441406 13.710938 -9.972656 12.859375 -10.453125 C 12.003906 -10.941406 10.710938 -11.5 8.984375 -12.125 C 6.554688 -12.988281 4.820312 -14.015625 3.78125 -15.203125 C 2.75 -16.390625 2.234375 -17.941406 2.234375 -19.859375 C 2.234375 -21.859375 2.984375 -23.453125 4.484375 -24.640625 C 5.992188 -25.835938 7.992188 -26.4375 10.484375 -26.4375 C 13.066406 -26.4375 15.445312 -25.957031 17.625 -25 L 16.6875 -22.359375 C 14.53125 -23.265625 12.4375 -23.71875 10.40625 -23.71875 C 8.800781 -23.71875 7.546875 -23.375 6.640625 -22.6875 C 5.742188 -22 5.296875 -21.039062 5.296875 -19.8125 C 5.296875 -18.914062 5.460938 -18.175781 5.796875 -17.59375 C 6.128906 -17.019531 6.6875 -16.492188 7.46875 -16.015625 C 8.257812 -15.535156 9.472656 -15.003906 11.109375 -14.421875 C 13.835938 -13.441406 15.710938 -12.394531 16.734375 -11.28125 C 17.765625 -10.164062 18.28125 -8.71875 18.28125 -6.9375 Z M 18.28125 -6.9375 "/></g></g></g><g fill="#202020" fill-opacity="1"><g transform="translate(253.017945, 193.055696)"><g><path d="M 20.109375 -18.46875 C 20.109375 -15.820312 19.207031 -13.789062 17.40625 -12.375 C 15.601562 -10.957031 13.023438 -10.25 9.671875 -10.25 L 6.609375 -10.25 L 6.609375 0 L 3.578125 0 L 3.578125 -26.0625 L 10.34375 -26.0625 C 16.851562 -26.0625 20.109375 -23.53125 20.109375 -18.46875 Z M 6.609375 -12.84375 L 9.34375 -12.84375 C 12.019531 -12.84375 13.957031 -13.273438 15.15625 -14.140625 C 16.363281 -15.015625 16.96875 -16.410156 16.96875 -18.328125 C 16.96875 -20.046875 16.398438 -21.328125 15.265625 -22.171875 C 14.140625 -23.015625 12.382812 -23.4375 10 -23.4375 L 6.609375 -23.4375 Z M 6.609375 -12.84375 "/></g></g></g><g fill="#202020" fill-opacity="1"><g transform="translate(282.541261, 193.055696)"><g><path d="M 26.203125 -13.0625 C 26.203125 -8.894531 25.144531 -5.613281 23.03125 -3.21875 C 20.925781 -0.832031 17.992188 0.359375 14.234375 0.359375 C 10.398438 0.359375 7.441406 -0.8125 5.359375 -3.15625 C 3.273438 -5.507812 2.234375 -8.820312 2.234375 -13.09375 C 2.234375 -17.34375 3.273438 -20.632812 5.359375 -22.96875 C 7.453125 -25.300781 10.425781 -26.46875 14.28125 -26.46875 C 18.019531 -26.46875 20.941406 -25.28125 23.046875 -22.90625 C 25.148438 -20.53125 26.203125 -17.25 26.203125 -13.0625 Z M 5.4375 -13.0625 C 5.4375 -9.53125 6.1875 -6.851562 7.6875 -5.03125 C 9.1875 -3.207031 11.367188 -2.296875 14.234375 -2.296875 C 17.128906 -2.296875 19.3125 -3.203125 20.78125 -5.015625 C 22.25 -6.835938 22.984375 -9.519531 22.984375 -13.0625 C 22.984375 -16.570312 22.25 -19.226562 20.78125 -21.03125 C 19.320312 -22.84375 17.15625 -23.75 14.28125 -23.75 C 11.382812 -23.75 9.1875 -22.835938 7.6875 -21.015625 C 6.1875 -19.191406 5.4375 -16.539062 5.4375 -13.0625 Z M 5.4375 -13.0625 "/></g></g></g><g fill="#202020" fill-opacity="1"><g transform="translate(318.513829, 193.055696)"><g><path d="M 11.609375 0 L 8.578125 0 L 8.578125 -23.359375 L 0.328125 -23.359375 L 0.328125 -26.0625 L 19.859375 -26.0625 L 19.859375 -23.359375 L 11.609375 -23.359375 Z M 11.609375 0 "/></g></g></g><g fill="#1e1e1e" fill-opacity="1"><g transform="translate(93.965562, 213.420872)"><g><path d="M 6.53125 0 L 4.96875 -2.578125 C 4.882812 -2.578125 4.753906 -2.578125 4.578125 -2.578125 L 2.5625 -2.578125 L 2.5625 0 L 1.125 0 L 1.125 -8.53125 L 4.578125 -8.53125 C 5.671875 -8.53125 6.515625 -8.273438 7.109375 -7.765625 C 7.710938 -7.253906 8.015625 -6.539062 8.015625 -5.625 C 8.015625 -4.9375 7.863281 -4.359375 7.5625 -3.890625 C 7.257812 -3.421875 6.820312 -3.078125 6.25 -2.859375 L 8.171875 0 Z M 2.5625 -3.859375 L 4.578125 -3.859375 C 5.960938 -3.859375 6.65625 -4.429688 6.65625 -5.578125 C 6.65625 -6.679688 5.960938 -7.234375 4.578125 -7.234375 L 2.5625 -7.234375 Z M 2.5625 -3.859375 "/></g></g></g><g fill="#1e1e1e" fill-opacity="1"><g transform="translate(108.900586, 213.420872)"><g><path d="M 7.21875 -7.234375 L 2.5625 -7.234375 L 2.5625 -4.9375 L 6.734375 -4.9375 L 6.734375 -3.640625 L 2.5625 -3.640625 L 2.5625 -1.296875 L 7.359375 -1.296875 L 7.359375 0 L 1.125 0 L 1.125 -8.53125 L 7.21875 -8.53125 Z M 7.21875 -7.234375 "/></g></g></g><g fill="#1e1e1e" fill-opacity="1"><g transform="translate(123.019424, 213.420872)"><g><path d="M 6.625 -1.921875 L 2.328125 -1.921875 L 1.515625 0 L 0.015625 0 L 3.78125 -8.53125 L 5.25 -8.53125 L 8.984375 0 L 7.453125 0 Z M 6.078125 -3.203125 L 4.46875 -7 L 2.859375 -3.203125 Z M 6.078125 -3.203125 "/></g></g></g><g fill="#1e1e1e" fill-opacity="1"><g transform="translate(138.137184, 213.420872)"><g><path d="M 2.5625 -1.296875 L 6.25 -1.296875 L 6.25 0 L 1.125 0 L 1.125 -8.53125 L 2.5625 -8.53125 Z M 2.5625 -1.296875 "/></g></g></g><g fill="#1e1e1e" fill-opacity="1"><g transform="translate(150.76983, 213.420872)"><g/></g></g><g fill="#1e1e1e" fill-opacity="1"><g transform="translate(160.04025, 213.420872)"><g><path d="M 7.21875 -7.234375 L 2.5625 -7.234375 L 2.5625 -4.9375 L 6.734375 -4.9375 L 6.734375 -3.640625 L 2.5625 -3.640625 L 2.5625 -1.296875 L 7.359375 -1.296875 L 7.359375 0 L 1.125 0 L 1.125 -8.53125 L 7.21875 -8.53125 Z M 7.21875 -7.234375 "/></g></g></g><g fill="#1e1e1e" fill-opacity="1"><g transform="translate(174.159085, 213.420872)"><g><path d="M 3.921875 -8.59375 C 5.023438 -8.59375 6.019531 -8.300781 6.90625 -7.71875 L 6.3125 -6.453125 C 5.445312 -6.972656 4.613281 -7.234375 3.8125 -7.234375 C 3.382812 -7.234375 3.046875 -7.15625 2.796875 -7 C 2.546875 -6.851562 2.421875 -6.632812 2.421875 -6.34375 C 2.421875 -6.0625 2.535156 -5.820312 2.765625 -5.625 C 2.992188 -5.425781 3.273438 -5.28125 3.609375 -5.1875 C 3.953125 -5.09375 4.320312 -4.972656 4.71875 -4.828125 C 5.125 -4.691406 5.492188 -4.539062 5.828125 -4.375 C 6.171875 -4.21875 6.453125 -3.96875 6.671875 -3.625 C 6.898438 -3.289062 7.015625 -2.882812 7.015625 -2.40625 C 7.015625 -1.664062 6.71875 -1.070312 6.125 -0.625 C 5.53125 -0.175781 4.753906 0.046875 3.796875 0.046875 C 3.148438 0.046875 2.519531 -0.0703125 1.90625 -0.3125 C 1.300781 -0.5625 0.769531 -0.890625 0.3125 -1.296875 L 0.9375 -2.546875 C 1.363281 -2.148438 1.832031 -1.84375 2.34375 -1.625 C 2.863281 -1.40625 3.359375 -1.296875 3.828125 -1.296875 C 4.328125 -1.296875 4.71875 -1.390625 5 -1.578125 C 5.28125 -1.765625 5.421875 -2.019531 5.421875 -2.34375 C 5.421875 -2.632812 5.304688 -2.878906 5.078125 -3.078125 C 4.847656 -3.273438 4.5625 -3.421875 4.21875 -3.515625 C 3.882812 -3.609375 3.515625 -3.722656 3.109375 -3.859375 C 2.710938 -3.992188 2.34375 -4.132812 2 -4.28125 C 1.664062 -4.4375 1.382812 -4.679688 1.15625 -5.015625 C 0.925781 -5.347656 0.8125 -5.75 0.8125 -6.21875 C 0.8125 -6.9375 1.09375 -7.507812 1.65625 -7.9375 C 2.226562 -8.375 2.984375 -8.59375 3.921875 -8.59375 Z M 3.921875 -8.59375 "/></g></g></g><g fill="#1e1e1e" fill-opacity="1"><g transform="translate(187.863731, 213.420872)"><g><path d="M 6.953125 -7.234375 L 4.234375 -7.234375 L 4.234375 0 L 2.796875 0 L 2.796875 -7.234375 L 0.109375 -7.234375 L 0.109375 -8.53125 L 6.953125 -8.53125 Z M 6.953125 -7.234375 "/></g></g></g><g fill="#1e1e1e" fill-opacity="1"><g transform="translate(201.04455, 213.420872)"><g><path d="M 6.625 -1.921875 L 2.328125 -1.921875 L 1.515625 0 L 0.015625 0 L 3.78125 -8.53125 L 5.25 -8.53125 L 8.984375 0 L 7.453125 0 Z M 6.078125 -3.203125 L 4.46875 -7 L 2.859375 -3.203125 Z M 6.078125 -3.203125 "/></g></g></g><g fill="#1e1e1e" fill-opacity="1"><g transform="translate(216.162306, 213.420872)"><g><path d="M 6.953125 -7.234375 L 4.234375 -7.234375 L 4.234375 0 L 2.796875 0 L 2.796875 -7.234375 L 0.109375 -7.234375 L 0.109375 -8.53125 L 6.953125 -8.53125 Z M 6.953125 -7.234375 "/></g></g></g><g fill="#1e1e1e" fill-opacity="1"><g transform="translate(229.343126, 213.420872)"><g><path d="M 7.21875 -7.234375 L 2.5625 -7.234375 L 2.5625 -4.9375 L 6.734375 -4.9375 L 6.734375 -3.640625 L 2.5625 -3.640625 L 2.5625 -1.296875 L 7.359375 -1.296875 L 7.359375 0 L 1.125 0 L 1.125 -8.53125 L 7.21875 -8.53125 Z M 7.21875 -7.234375 "/></g></g></g><g fill="#1e1e1e" fill-opacity="1"><g transform="translate(243.46196, 213.420872)"><g/></g></g><g fill="#1e1e1e" fill-opacity="1"><g transform="translate(252.73238, 213.420872)"><g><path d="M 6.625 -1.921875 L 2.328125 -1.921875 L 1.515625 0 L 0.015625 0 L 3.78125 -8.53125 L 5.25 -8.53125 L 8.984375 0 L 7.453125 0 Z M 6.078125 -3.203125 L 4.46875 -7 L 2.859375 -3.203125 Z M 6.078125 -3.203125 "/></g></g></g><g fill="#1e1e1e" fill-opacity="1"><g transform="translate(267.850136, 213.420872)"><g><path d="M 6.953125 -4.1875 L 8.21875 -4.1875 L 8.21875 -1.046875 C 7.78125 -0.710938 7.257812 -0.441406 6.65625 -0.234375 C 6.0625 -0.0351562 5.476562 0.0625 4.90625 0.0625 C 3.644531 0.0625 2.582031 -0.351562 1.71875 -1.1875 C 0.851562 -2.019531 0.421875 -3.046875 0.421875 -4.265625 C 0.421875 -5.484375 0.859375 -6.503906 1.734375 -7.328125 C 2.609375 -8.148438 3.691406 -8.5625 4.984375 -8.5625 C 5.585938 -8.5625 6.175781 -8.453125 6.75 -8.234375 C 7.332031 -8.023438 7.835938 -7.738281 8.265625 -7.375 L 7.453125 -6.3125 C 6.742188 -6.957031 5.921875 -7.28125 4.984375 -7.28125 C 4.117188 -7.28125 3.382812 -6.988281 2.78125 -6.40625 C 2.175781 -5.820312 1.875 -5.109375 1.875 -4.265625 C 1.875 -3.410156 2.175781 -2.691406 2.78125 -2.109375 C 3.382812 -1.523438 4.125 -1.234375 5 -1.234375 C 5.65625 -1.234375 6.304688 -1.425781 6.953125 -1.8125 Z M 6.953125 -4.1875 "/></g></g></g><g fill="#1e1e1e" fill-opacity="1"><g transform="translate(283.101897, 213.420872)"><g><path d="M 7.21875 -7.234375 L 2.5625 -7.234375 L 2.5625 -4.9375 L 6.734375 -4.9375 L 6.734375 -3.640625 L 2.5625 -3.640625 L 2.5625 -1.296875 L 7.359375 -1.296875 L 7.359375 0 L 1.125 0 L 1.125 -8.53125 L 7.21875 -8.53125 Z M 7.21875 -7.234375 "/></g></g></g><g fill="#1e1e1e" fill-opacity="1"><g transform="translate(297.220731, 213.420872)"><g><path d="M 8.515625 0 L 7.109375 0 L 2.5625 -6.125 L 2.5625 0 L 1.125 0 L 1.125 -8.53125 L 2.53125 -8.53125 L 7.109375 -2.40625 L 7.109375 -8.53125 L 8.515625 -8.53125 Z M 8.515625 0 "/></g></g></g><g fill="#1e1e1e" fill-opacity="1"><g transform="translate(312.996319, 213.420872)"><g><path d="M 4.90625 -8.5625 C 5.5 -8.5625 6.082031 -8.445312 6.65625 -8.21875 C 7.226562 -7.988281 7.722656 -7.664062 8.140625 -7.25 L 7.296875 -6.203125 C 6.992188 -6.535156 6.628906 -6.796875 6.203125 -6.984375 C 5.773438 -7.179688 5.347656 -7.28125 4.921875 -7.28125 C 4.066406 -7.28125 3.34375 -6.988281 2.75 -6.40625 C 2.164062 -5.832031 1.875 -5.128906 1.875 -4.296875 C 1.875 -3.441406 2.164062 -2.722656 2.75 -2.140625 C 3.34375 -1.566406 4.066406 -1.28125 4.921875 -1.28125 C 5.804688 -1.28125 6.597656 -1.617188 7.296875 -2.296875 L 8.15625 -1.34375 C 7.71875 -0.90625 7.203125 -0.5625 6.609375 -0.3125 C 6.023438 -0.0625 5.4375 0.0625 4.84375 0.0625 C 3.59375 0.0625 2.539062 -0.351562 1.6875 -1.1875 C 0.84375 -2.019531 0.421875 -3.050781 0.421875 -4.28125 C 0.421875 -5.488281 0.851562 -6.503906 1.71875 -7.328125 C 2.582031 -8.148438 3.644531 -8.5625 4.90625 -8.5625 Z M 4.90625 -8.5625 "/></g></g></g><g fill="#1e1e1e" fill-opacity="1"><g transform="translate(327.614614, 213.420872)"><g><path d="M 4.625 -2.84375 L 4.625 0 L 3.1875 0 L 3.1875 -2.796875 L 0.015625 -8.53125 L 1.46875 -8.53125 L 3.90625 -4.375 L 6.28125 -8.53125 L 7.75 -8.53125 Z M 4.625 -2.84375 "/></g></g></g></svg>